<svg width="343" height="182" viewBox="0 0 343 182" fill="none" xmlns="http://www.w3.org/2000/svg">
<g clip-path="url(#clip0_0_198)">
<rect width="343" height="182" rx="8" fill="#552049"/>
<circle cx="271" cy="40" r="14" stroke="#F39E9E" stroke-width="4"/>
<circle cx="239" cy="40" r="14" stroke="#F39E9E" stroke-opacity="0.5" stroke-width="4"/>
<circle cx="207" cy="40" r="14" stroke="#F39E9E" stroke-opacity="0.25" stroke-width="4"/>
<circle cx="303" cy="40" r="14" stroke="#FFF7F0" stroke-width="4"/>
<path fill-rule="evenodd" clip-rule="evenodd" d="M319 88L287 56V88H319Z" fill="#F39E9E"/>
<rect x="223" y="56" width="64" height="32" rx="16" fill="#F6A560"/>
<path fill-rule="evenodd" clip-rule="evenodd" d="M195 70H191V74H195H199V70H195ZM219 70H223H227V74H223H219V70ZM247 70H251H255V74H251H247V70Z" fill="#FFF7F0"/>
<path d="M25.728 153H28.992V140.616L34.536 148.2H34.92L40.44 140.856V153H43.728V135.12H40.608L34.8 143.184L28.848 135.12H25.728V153ZM53.2699 153.288C54.5339 153.288 55.6859 153 56.7259 152.424C57.7659 151.832 58.5979 151.024 59.2219 150C59.8459 148.96 60.1579 147.784 60.1579 146.472C60.1579 145.16 59.8459 143.992 59.2219 142.968C58.6139 141.944 57.7899 141.136 56.7499 140.544C55.7099 139.952 54.5499 139.656 53.2699 139.656C51.9739 139.656 50.8059 139.952 49.7659 140.544C48.7259 141.136 47.8939 141.944 47.2699 142.968C46.6619 143.992 46.3579 145.16 46.3579 146.472C46.3579 147.784 46.6619 148.952 47.2699 149.976C47.8939 151 48.7259 151.808 49.7659 152.4C50.8219 152.992 51.9899 153.288 53.2699 153.288ZM53.2699 150.408C52.5659 150.408 51.9339 150.24 51.3739 149.904C50.8299 149.568 50.3979 149.104 50.0779 148.512C49.7739 147.904 49.6219 147.224 49.6219 146.472C49.6219 145.72 49.7739 145.048 50.0779 144.456C50.3979 143.864 50.8299 143.4 51.3739 143.064C51.9339 142.712 52.5659 142.536 53.2699 142.536C53.9739 142.536 54.5899 142.712 55.1179 143.064C55.6619 143.4 56.0859 143.864 56.3899 144.456C56.7099 145.048 56.8699 145.72 56.8699 146.472C56.8699 147.224 56.7099 147.904 56.3899 148.512C56.0859 149.104 55.6619 149.568 55.1179 149.904C54.5899 150.24 53.9739 150.408 53.2699 150.408ZM68.2598 153.144C68.7878 153.144 69.3078 153.104 69.8198 153.024V150.312C69.5158 150.36 69.2358 150.384 68.9798 150.384C68.2118 150.384 67.6518 150.208 67.2998 149.856C66.9478 149.504 66.7718 149 66.7718 148.344V142.752H69.7718V139.944H66.7718V136.968H63.6278V137.976C63.6278 138.616 63.4518 139.104 63.0998 139.44C62.7478 139.776 62.2518 139.944 61.6118 139.944H61.3718V142.752H63.6278V148.512C63.6278 149.968 64.0278 151.104 64.8278 151.92C65.6438 152.736 66.7878 153.144 68.2598 153.144ZM72.2218 138.48H75.3658V135.12H72.2218V138.48ZM72.2218 153H75.3658V139.944H72.2218V153ZM84.6527 153.288C85.9167 153.288 87.0687 153 88.1087 152.424C89.1487 151.832 89.9807 151.024 90.6047 150C91.2287 148.96 91.5407 147.784 91.5407 146.472C91.5407 145.16 91.2287 143.992 90.6047 142.968C89.9967 141.944 89.1727 141.136 88.1327 140.544C87.0927 139.952 85.9327 139.656 84.6527 139.656C83.3567 139.656 82.1887 139.952 81.1487 140.544C80.1087 141.136 79.2767 141.944 78.6527 142.968C78.0447 143.992 77.7407 145.16 77.7407 146.472C77.7407 147.784 78.0447 148.952 78.6527 149.976C79.2767 151 80.1087 151.808 81.1487 152.4C82.2047 152.992 83.3727 153.288 84.6527 153.288ZM84.6527 150.408C83.9487 150.408 83.3167 150.24 82.7567 149.904C82.2127 149.568 81.7807 149.104 81.4607 148.512C81.1567 147.904 81.0047 147.224 81.0047 146.472C81.0047 145.72 81.1567 145.048 81.4607 144.456C81.7807 143.864 82.2127 143.4 82.7567 143.064C83.3167 142.712 83.9487 142.536 84.6527 142.536C85.3567 142.536 85.9727 142.712 86.5007 143.064C87.0447 143.4 87.4687 143.864 87.7727 144.456C88.0927 145.048 88.2527 145.72 88.2527 146.472C88.2527 147.224 88.0927 147.904 87.7727 148.512C87.4687 149.104 87.0447 149.568 86.5007 149.904C85.9727 150.24 85.3567 150.408 84.6527 150.408ZM93.9249 153H97.0689V145.344C97.0689 144.496 97.3089 143.816 97.7889 143.304C98.2849 142.792 98.9249 142.536 99.7089 142.536C100.493 142.536 101.125 142.792 101.605 143.304C102.101 143.8 102.349 144.48 102.349 145.344V153H105.493V144.6C105.493 143.624 105.285 142.768 104.869 142.032C104.453 141.28 103.869 140.696 103.117 140.28C102.381 139.864 101.533 139.656 100.573 139.656C99.7569 139.656 99.0209 139.816 98.3649 140.136C97.7249 140.456 97.2289 140.928 96.8769 141.552V139.944H93.9249V153ZM121.153 153.288C122.209 153.288 123.233 153.112 124.225 152.76C125.217 152.392 126.105 151.856 126.889 151.152C127.689 150.432 128.321 149.552 128.785 148.512C129.249 147.456 129.481 146.232 129.481 144.84V143.04H121.081V145.8H126.217V145.872C126.217 146.784 125.985 147.576 125.521 148.248C125.057 148.904 124.441 149.416 123.673 149.784C122.905 150.136 122.065 150.312 121.153 150.312C120.033 150.312 119.041 150.048 118.177 149.52C117.313 148.992 116.633 148.264 116.137 147.336C115.657 146.392 115.417 145.296 115.417 144.048C115.417 142.8 115.657 141.712 116.137 140.784C116.617 139.84 117.281 139.112 118.129 138.6C118.977 138.072 119.961 137.808 121.081 137.808C122.217 137.808 123.185 138.096 123.985 138.672C124.785 139.248 125.361 140 125.713 140.928L128.617 139.536C128.313 138.688 127.809 137.912 127.105 137.208C126.401 136.488 125.537 135.912 124.513 135.48C123.505 135.048 122.361 134.832 121.081 134.832C119.801 134.832 118.617 135.064 117.529 135.528C116.441 135.976 115.497 136.616 114.697 137.448C113.897 138.264 113.273 139.24 112.825 140.376C112.377 141.496 112.153 142.72 112.153 144.048C112.153 145.376 112.377 146.608 112.825 147.744C113.289 148.864 113.929 149.84 114.745 150.672C115.561 151.504 116.513 152.152 117.601 152.616C118.689 153.064 119.873 153.288 121.153 153.288ZM131.8 153H134.944V145.728C134.944 144.736 135.216 143.968 135.76 143.424C136.32 142.864 137.04 142.584 137.92 142.584H139.048V139.8H138.28C137.48 139.8 136.776 139.944 136.168 140.232C135.56 140.52 135.088 141.04 134.752 141.792V139.944H131.8V153ZM144.737 153.288C146.433 153.288 147.793 152.728 148.817 151.608V153H151.793V144.312C151.793 143.4 151.561 142.592 151.097 141.888C150.633 141.184 149.993 140.64 149.177 140.256C148.377 139.856 147.441 139.656 146.368 139.656C145.057 139.656 143.889 139.968 142.865 140.592C141.841 141.216 141.137 142.04 140.753 143.064L143.321 144.312C143.561 143.72 143.937 143.248 144.449 142.896C144.961 142.528 145.561 142.344 146.249 142.344C146.969 142.344 147.545 142.536 147.977 142.92C148.425 143.288 148.649 143.752 148.649 144.312V144.744L144.761 145.368C143.225 145.624 142.089 146.112 141.353 146.832C140.617 147.552 140.249 148.456 140.249 149.544C140.249 150.696 140.657 151.608 141.473 152.28C142.289 152.952 143.377 153.288 144.737 153.288ZM143.513 149.424C143.513 148.512 144.129 147.936 145.361 147.696L148.649 147.144V147.672C148.649 148.568 148.337 149.328 147.713 149.952C147.105 150.576 146.305 150.888 145.312 150.888C144.785 150.888 144.353 150.76 144.017 150.504C143.681 150.232 143.513 149.872 143.513 149.424ZM154.698 157.8H157.842V151.752C158.322 152.248 158.906 152.632 159.594 152.904C160.282 153.16 161.026 153.288 161.826 153.288C163.09 153.288 164.218 152.992 165.21 152.4C166.202 151.792 166.986 150.976 167.562 149.952C168.138 148.912 168.426 147.752 168.426 146.472C168.426 145.192 168.138 144.04 167.562 143.016C166.986 141.976 166.202 141.16 165.21 140.568C164.218 139.96 163.098 139.656 161.85 139.656C160.954 139.656 160.146 139.816 159.426 140.136C158.706 140.456 158.114 140.904 157.65 141.48V139.944H154.698V157.8ZM161.466 150.408C160.778 150.408 160.154 150.24 159.594 149.904C159.05 149.568 158.618 149.104 158.298 148.512C157.994 147.92 157.842 147.24 157.842 146.472C157.842 145.704 157.994 145.024 158.298 144.432C158.618 143.84 159.05 143.376 159.594 143.04C160.154 142.704 160.778 142.536 161.466 142.536C162.186 142.536 162.818 142.712 163.362 143.064C163.922 143.4 164.362 143.864 164.682 144.456C165.002 145.048 165.162 145.72 165.162 146.472C165.162 147.224 165.002 147.904 164.682 148.512C164.362 149.104 163.922 149.568 163.362 149.904C162.818 150.24 162.186 150.408 161.466 150.408ZM170.823 153H173.967V145.344C173.967 144.496 174.215 143.816 174.711 143.304C175.207 142.792 175.839 142.536 176.607 142.536C177.375 142.536 178.007 142.792 178.503 143.304C178.999 143.8 179.247 144.48 179.247 145.344V153H182.391V144.6C182.391 143.624 182.183 142.768 181.767 142.032C181.351 141.28 180.767 140.696 180.015 140.28C179.279 139.864 178.431 139.656 177.471 139.656C176.719 139.656 176.039 139.792 175.431 140.064C174.823 140.32 174.335 140.712 173.967 141.24V134.832H170.823V153ZM185.05 138.48H188.194V135.12H185.05V138.48ZM185.05 153H188.194V139.944H185.05V153ZM197.385 153.288C198.329 153.288 199.201 153.128 200.001 152.808C200.801 152.472 201.489 152.016 202.065 151.44C202.641 150.848 203.057 150.184 203.313 149.448L200.553 148.2C200.297 148.888 199.889 149.432 199.329 149.832C198.785 150.216 198.137 150.408 197.385 150.408C196.697 150.408 196.081 150.24 195.537 149.904C195.009 149.568 194.593 149.104 194.289 148.512C193.985 147.904 193.833 147.224 193.833 146.472C193.833 145.704 193.985 145.024 194.289 144.432C194.593 143.84 195.009 143.376 195.537 143.04C196.081 142.704 196.697 142.536 197.385 142.536C198.137 142.536 198.785 142.736 199.329 143.136C199.889 143.536 200.297 144.064 200.553 144.72L203.313 143.52C203.041 142.752 202.617 142.08 202.041 141.504C201.465 140.912 200.777 140.456 199.977 140.136C199.177 139.816 198.313 139.656 197.385 139.656C196.089 139.656 194.921 139.952 193.881 140.544C192.857 141.136 192.049 141.944 191.457 142.968C190.865 143.992 190.569 145.152 190.569 146.448C190.569 147.744 190.865 148.912 191.457 149.952C192.049 150.976 192.857 151.792 193.881 152.4C194.921 152.992 196.089 153.288 197.385 153.288ZM210.666 153.288C211.658 153.288 212.522 153.12 213.258 152.784C213.994 152.448 214.57 151.984 214.986 151.392C215.402 150.784 215.61 150.088 215.61 149.304C215.61 148.392 215.322 147.608 214.746 146.952C214.17 146.296 213.338 145.816 212.25 145.512L210.162 144.888C209.714 144.76 209.346 144.592 209.058 144.384C208.77 144.176 208.626 143.888 208.626 143.52C208.626 143.136 208.778 142.824 209.082 142.584C209.386 142.344 209.802 142.224 210.33 142.224C210.986 142.224 211.578 142.4 212.106 142.752C212.65 143.104 213.026 143.576 213.234 144.168L215.634 143.04C215.234 141.984 214.562 141.16 213.618 140.568C212.674 139.96 211.586 139.656 210.354 139.656C209.41 139.656 208.57 139.824 207.834 140.16C207.114 140.496 206.546 140.968 206.13 141.576C205.73 142.168 205.53 142.864 205.53 143.664C205.53 144.56 205.81 145.336 206.37 145.992C206.946 146.648 207.786 147.136 208.89 147.456L211.026 148.056C211.442 148.168 211.794 148.336 212.082 148.56C212.386 148.768 212.538 149.056 212.538 149.424C212.538 149.856 212.362 150.2 212.01 150.456C211.674 150.696 211.226 150.816 210.666 150.816C209.93 150.816 209.266 150.608 208.674 150.192C208.082 149.776 207.61 149.2 207.258 148.464L204.906 149.592C205.29 150.712 205.994 151.608 207.018 152.28C208.058 152.952 209.274 153.288 210.666 153.288Z" fill="white"/>
</g>
<defs>
<clipPath id="clip0_0_198">
<rect width="343" height="182" fill="white"/>
</clipPath>
</defs>
</svg>
